<svg width="10" height="16" viewBox="0 0 10 16" fill="none" xmlns="http://www.w3.org/2000/svg">
<path d="M0.839112 7.99316C0.839112 8.27539 0.947022 8.51611 1.16284 8.73193L7.63745 15.0654C7.82007 15.248 8.04419 15.3394 8.30981 15.3394C8.84937 15.3394 9.28101 14.9243 9.28101 14.3848C9.28101 14.1191 9.1731 13.8784 8.99048 13.6875L3.14673 7.99316L8.99048 2.29883C9.1648 2.11621 9.28101 1.87549 9.28101 1.60986C9.28101 1.06201 8.84937 0.646973 8.30982 0.646973C8.04419 0.646973 7.82007 0.738281 7.63745 0.920898L1.16284 7.25439C0.938721 7.47021 0.839112 7.71094 0.839112 7.99316Z" fill="#AAB2BD"/>
</svg>
