<svg width="32" height="32" viewBox="0 0 32 32" fill="none" xmlns="http://www.w3.org/2000/svg">
<rect opacity="0.64" width="32" height="32" rx="16" fill="white"/>
<path d="M9.42383 22.4731C9.00879 22.0664 9.02539 21.3608 9.41553 20.9707L14.3628 16.0151L9.41553 11.0679C9.02539 10.6777 9.01709 9.98047 9.42383 9.56543C9.83057 9.15039 10.5361 9.16699 10.9346 9.55713L15.8818 14.5044L20.8208 9.55713C21.2275 9.15039 21.9165 9.15869 22.3315 9.56543C22.7466 9.98047 22.7466 10.6694 22.3398 11.0762L17.4009 16.0151L22.3398 20.9624C22.7466 21.3691 22.7383 22.0581 22.3315 22.4731C21.9248 22.8882 21.2275 22.8882 20.8208 22.4814L15.8818 17.5342L10.9346 22.4814C10.5361 22.8716 9.83887 22.8882 9.42383 22.4731Z" fill="#CCD1D9"/>
</svg>
