<svg width="14" height="14" viewBox="0 0 14 14" fill="none" xmlns="http://www.w3.org/2000/svg">
<path d="M0.423828 13.4731C0.00878906 13.0664 0.0253906 12.3608 0.415527 11.9707L5.36279 7.01514L0.415527 2.06787C0.0253906 1.67773 0.0170898 0.980469 0.423828 0.56543C0.830566 0.150391 1.53613 0.166992 1.93457 0.557129L6.88184 5.50439L11.8208 0.557129C12.2275 0.150391 12.9165 0.158691 13.3315 0.56543C13.7466 0.980469 13.7466 1.66943 13.3398 2.07617L8.40088 7.01514L13.3398 11.9624C13.7466 12.3691 13.7383 13.0581 13.3315 13.4731C12.9248 13.8882 12.2275 13.8882 11.8208 13.4814L6.88184 8.53418L1.93457 13.4814C1.53613 13.8716 0.838867 13.8882 0.423828 13.4731Z" fill="white"/>
</svg>
