<svg width="16" height="16" viewBox="0 0 16 16" fill="none" xmlns="http://www.w3.org/2000/svg">
<path d="M5.88574 15.4609C5.4209 15.4609 5.07227 15.2866 4.75684 14.8965L0.457031 9.60059C0.216309 9.31006 0.116699 9.03613 0.116699 8.74561C0.116699 8.08154 0.606445 7.6001 1.28711 7.6001C1.69385 7.6001 1.97607 7.74951 2.25 8.08984L5.85254 12.6553L12.8833 1.51562C13.1655 1.06738 13.4478 0.901367 13.9126 0.901367C14.585 0.901367 15.0664 1.37451 15.0664 2.03027C15.0664 2.2876 14.9917 2.55322 14.7925 2.85205L7.02295 14.8716C6.75732 15.27 6.37549 15.4609 5.88574 15.4609Z" fill="white"/>
</svg>
