<svg width="32" height="32" viewBox="0 0 32 32"  fill="none" xmlns="http://www.w3.org/2000/svg">
<g filter="url(#filter0_d_392_88)">
<rect x="0" y="0" width="32" height="32" rx="16" fill="url(#paint0_linear_392_88)"/>
</g>
<path d="M45.8857 39.4609C45.4209 39.4609 45.0723 39.2866 44.7568 38.8965L40.457 33.6006C40.2163 33.3101 40.1167 33.0361 40.1167 32.7456C40.1167 32.0815 40.6064 31.6001 41.2871 31.6001C41.6938 31.6001 41.9761 31.7495 42.25 32.0898L45.8525 36.6553L52.8833 25.5156C53.1655 25.0674 53.4478 24.9014 53.9126 24.9014C54.585 24.9014 55.0664 25.3745 55.0664 26.0303C55.0664 26.2876 54.9917 26.5532 54.7925 26.8521L47.0229 38.8716C46.7573 39.27 46.3755 39.4609 45.8857 39.4609Z" fill="white"/>
<defs>
<filter id="filter0_d_392_88" x="0" y="0" width="32" height="32" filterUnits="userSpaceOnUse" color-interpolation-filters="sRGB">
<feFlood flood-opacity="0" result="BackgroundImageFix"/>
<feColorMatrix in="SourceAlpha" type="matrix" values="0 0 0 0 0 0 0 0 0 0 0 0 0 0 0 0 0 0 127 0" result="hardAlpha"/>
<feOffset dy="16"/>
<feGaussianBlur stdDeviation="16"/>
<feComposite in2="hardAlpha" operator="out"/>
<feColorMatrix type="matrix" values="0 0 0 0 0.00392157 0 0 0 0 0.733333 0 0 0 0 0.0862745 0 0 0 0.16 0"/>
<feBlend mode="normal" in2="BackgroundImageFix" result="effect1_dropShadow_392_88"/>
<feBlend mode="normal" in="SourceGraphic" in2="effect1_dropShadow_392_88" result="shape"/>
</filter>
<linearGradient id="paint0_linear_392_88" x1="48" y1="16" x2="48" y2="48" gradientUnits="userSpaceOnUse">
<stop stop-color="#1BE231"/>
<stop offset="1" stop-color="#1AA32A"/>
</linearGradient>
</defs>
</svg>
