<svg width="9" height="15" viewBox="0 0 9 15" fill="none" xmlns="http://www.w3.org/2000/svg">
<path d="M8.9375 7.79492C8.9375 8.00244 8.86279 8.19336 8.70508 8.34277L2.12256 14.7842C1.98145 14.9253 1.79883 15 1.58301 15C1.15137 15 0.819336 14.6763 0.819336 14.2446C0.819336 14.0371 0.910645 13.8462 1.04346 13.7051L7.08643 7.79492L1.04346 1.88476C0.910646 1.74365 0.819337 1.56103 0.819337 1.34521C0.819337 0.913574 1.15137 0.589843 1.58301 0.589843C1.79883 0.589843 1.98145 0.66455 2.12256 0.813964L8.70508 7.24707C8.86279 7.40479 8.9375 7.5874 8.9375 7.79492Z" fill="#AAB2BD"/>
</svg>
