<svg width="12" height="12" viewBox="0 0 12 12" fill="none" xmlns="http://www.w3.org/2000/svg">
<path d="M11.6625 5.57162L7.43341 4.56625L6.42886 0.338407C6.38186 0.140108 6.20413 0 6.00045 0C5.79587 0 5.61904 0.140108 5.57204 0.338407L4.56659 4.56625L0.337535 5.57162C0.140117 5.61862 0 5.79543 0 6C0 6.20367 0.140117 6.38138 0.337535 6.42748L4.56659 7.43375L5.57204 11.6589C5.61904 11.859 5.79587 12 6.00045 12C6.20413 12 6.38186 11.8594 6.42886 11.6589L7.43341 7.43375L11.6625 6.42748C11.8599 6.38093 12 6.20367 12 6C12 5.79543 11.8599 5.61907 11.6625 5.57162Z" fill="white"/>
</svg>
